# xmcd CD database file
#
# Track frame offsets:
#	163
#	36221
#	63462
#	103265
#	148886
#
# Disc length: 2553 seconds
#
# Revision: 0
# Processed by: cddbd v1.5.2PL0 Copyright (c) Steve Scherf et al.
# Submitted via: CDex 1.70beta3
#
DISCID=4a09f705
DTITLE=HERBIE HANCOCK - MAIDEN VOYAGE
DYEAR=1965
DGENRE=Jazz
TTITLE0=Maiden Voyage
TTITLE1=The Eye Of The Hurricane
TTITLE2=Little One
TTITLE3=Survival Of The Fittest
TTITLE4=Dolphin Dance
EXTD=YEAR: 1965
EXTT0=
EXTT1=
EXTT2=
EXTT3=
EXTT4=
PLAYORDER=
